<svg xmlns="http://www.w3.org/2000/svg" viewBox="0 0 12599.422400000001 11200">
<rect width="12599.422400000001" height="11200" fill="#F5F1EA"/>
<rect x="0" y="340" width="12599.422400000001" height="2080" fill="#FFFDF8"/>
<text x="400" y="600" font-size="260" fill="#D93A2B" font-family="Menlo, Monaco, monospace" font-weight="700">PAIR A</text>
<text x="400" y="850" font-size="130" fill="#6B645A" font-family="Menlo, Monaco, monospace">U+E000 / U+E001</text>
<line x1="400" y1="2300" x2="12199.422400000001" y2="2300" stroke="#CFC4AF" stroke-width="6"/>
<g transform="translate(1450.0,1500) scale(1.1968,-1.1968)"><path d="M103 165C103 275 157 325 266 325C482 325 498 -15 826 -15C1011 -15 1154 85 1154 311C1154 532 1030 643 849 643C633 643 572 517 572 402C572 295 628 187 774 187C873 187 922 245 922 335C922 406 902 448 853 448C732 448 850 196 780 196C742 196 737 256 737 349C737 521 769 634 851 634C900 634 967 606 967 307C967 111 918 -5 837 -5C596 -5 571 504 270 504C127 504 30 412 30 241C30 57 147 2 238 2C323 2 383 43 383 136C383 223 347 261 279 261C204 261 176 196 209 120C232 67 225 20 188 20C135 20 103 67 103 165Z" fill="#111111"/></g>
<g transform="translate(3297.0112,1500) scale(1,-1)"><path d="M409 449C409 256 389 158 345 158C328 158 321 168 321 214C321 574 327 622 367 622C400 622 409 574 409 449ZM0 0C34 0 130 2 198 2C261 2 353 0 385 0C389 0 391 4 391 7C391 11 389 14 385 14C377 14 363 11 358 11C328 11 319 31 319 88C319 136 325 145 434 172C564 204 661 235 661 434C661 573 584 634 457 634C395 634 260 628 191 628C122 628 62 630 0 630C-4 630 -7 627 -7 623C-7 619 -5 616 0 616C7 616 17 619 27 619C52 619 54 588 56 556C60 495 61 423 61 351C61 249 58 147 56 75C54 28 49 11 24 11C20 11 7 14 0 14C-4 14 -7 11 -7 7C-7 3 -5 0 0 0Z" fill="#111111"/></g>
<g transform="translate(4003.0112,1500) scale(1,-1)"><path d="M133 7C164 7 231 0 244 0C251 0 254 5 254 12C254 38 214 113 214 174C214 196 225 204 270 204C325 204 332 196 332 88C332 37 322 11 306 11C297 11 289 14 282 14C277 14 274 11 274 7C274 3 276 0 282 0C295 0 430 5 489 5C561 5 630 0 658 0C662 0 664 3 664 7C664 11 663 14 660 20C596 147 503 470 503 616C503 626 497 630 489 630C469 630 389 624 303 624C236 624 114 631 80 631C74 631 71 627 71 623C71 619 74 615 80 615C92 615 108 619 121 619C151 619 179 609 179 545C179 419 3 155 3 17C3 4 10 0 24 0C46 0 92 7 133 7ZM178 405C178 504 192 559 221 559C245 559 254 530 283 417C307 324 318 276 318 243C318 225 312 214 269 214C201 214 178 222 178 405Z" fill="#111111"/></g>
<g transform="translate(4701.0112,1500) scale(1,-1)"><path d="M623 284C623 292 619 295 614 295C609 295 605 291 605 286C605 276 612 260 612 242C612 200 562 179 480 179C322 179 274 274 274 440C274 576 288 635 320 635C349 635 352 596 359 554C390 388 436 315 590 314C613 315 617 327 617 343C617 377 611 426 612 470C613 531 623 624 623 640C623 647 619 650 615 650C610 650 607 647 607 640C607 637 610 625 610 615C610 599 597 593 580 593C515 593 465 645 322 645C130 645 23 512 23 308C23 38 181 -15 354 -15C569 -15 623 107 623 284Z" fill="#111111"/></g>
<g transform="translate(5379.0112,1500) scale(1,-1)"><path d="M191 627C122 627 62 630 0 630C-5 630 -7 627 -7 623C-7 620 -5 616 0 616C7 616 17 619 27 619C52 619 54 587 56 555C60 494 61 422 61 350C61 248 58 147 56 75C54 28 49 11 24 11C20 11 7 13 0 13C-5 13 -7 10 -7 7C-7 3 -5 0 0 0C33 0 131 3 198 3C261 3 350 0 382 0C387 0 389 3 389 7C389 10 387 13 382 13C374 13 363 11 358 11C333 11 328 28 326 75C324 147 321 249 321 351C321 423 322 495 326 556C328 588 330 619 355 619C365 619 375 616 382 616C387 616 389 620 389 623C389 627 387 630 382 630C320 630 260 627 191 627Z" fill="#111111"/></g>
<g transform="translate(5801.0112,1500) scale(1,-1)"><path d="M0 0C33 0 131 6 198 6C273 6 380 0 418 0C422 0 425 2 425 6C425 10 423 13 418 13C404 13 380 11 371 11C338 11 328 28 326 75C325 118 323 179 323 228C323 249 328 255 337 255C390 255 428 104 490 104C497 104 502 109 502 114C502 144 496 202 496 251C496 303 504 356 504 377C504 389 499 391 492 391C424 391 383 265 337 265C327 265 323 270 323 288C323 374 325 470 330 554C332 586 336 617 368 617C439 617 452 370 580 370C591 370 595 375 595 381C595 403 589 460 589 514C589 560 594 593 594 613C594 623 589 630 575 630C515 630 290 626 196 626C125 626 64 630 0 630C-4 630 -7 627 -7 623C-7 619 -5 616 0 616C7 616 17 620 27 620C52 620 54 588 56 556C60 486 61 402 61 320C61 228 58 139 56 75C54 28 49 11 24 11C20 11 7 14 0 14C-4 14 -7 11 -7 7C-7 3 -5 0 0 0Z" fill="#111111"/></g>
<g transform="translate(6446.0112,1500) scale(1,-1)"><path d="M191 627C122 627 62 630 0 630C-5 630 -7 627 -7 623C-7 620 -5 616 0 616C7 616 17 619 27 619C52 619 54 587 56 555C60 494 61 422 61 350C61 248 58 147 56 75C54 28 49 11 24 11C20 11 7 13 0 13C-5 13 -7 10 -7 7C-7 3 -5 0 0 0C33 0 131 3 198 3C261 3 350 0 382 0C387 0 389 3 389 7C389 10 387 13 382 13C374 13 363 11 358 11C333 11 328 28 326 75C324 147 321 249 321 351C321 423 322 495 326 556C328 588 330 619 355 619C365 619 375 616 382 616C387 616 389 620 389 623C389 627 387 630 382 630C320 630 260 627 191 627Z" fill="#111111"/></g>
<g transform="translate(6868.0112,1500) scale(1,-1)"><path d="M623 284C623 292 619 295 614 295C609 295 605 291 605 286C605 276 612 260 612 242C612 200 562 179 480 179C322 179 274 274 274 440C274 576 288 635 320 635C349 635 352 596 359 554C390 388 436 315 590 314C613 315 617 327 617 343C617 377 611 426 612 470C613 531 623 624 623 640C623 647 619 650 615 650C610 650 607 647 607 640C607 637 610 625 610 615C610 599 597 593 580 593C515 593 465 645 322 645C130 645 23 512 23 308C23 38 181 -15 354 -15C569 -15 623 107 623 284Z" fill="#111111"/></g>
<g transform="translate(7805.4112000000005,1500) scale(1,-1)"><path d="M0 0C34 0 130 2 198 2C268 2 371 0 407 0C412 0 414 4 414 7C414 11 412 14 407 14C392 14 367 11 358 11C333 11 328 28 326 75C324 132 321 216 321 298C321 317 332 325 356 325C384 325 403 313 403 289C403 236 400 185 400 141C400 31 457 -10 554 -10C681 -9 693 36 693 113C693 150 690 168 680 168C677 168 674 166 674 161C674 149 683 135 683 114C683 96 673 92 667 92C657 92 652 96 652 117C652 173 654 227 654 263C654 337 599 367 540 367C468 367 414 335 363 335C355 335 351 340 351 344C351 348 353 351 357 353C490 417 683 433 683 616C683 627 678 630 670 630C633 630 576 626 534 626C495 626 450 630 417 630C412 630 409 626 409 622C409 610 416 600 416 557C416 499 390 356 336 356C325 356 321 361 321 386C321 459 322 530 326 578C328 611 334 619 348 619C355 619 363 617 368 617C373 617 375 620 375 624C375 627 373 630 368 630C310 630 255 628 191 628C122 628 62 630 0 630C-4 630 -7 628 -7 623C-7 619 -5 616 0 616C7 616 17 619 27 619C52 619 54 588 56 556C60 495 61 423 61 351C61 249 58 147 56 75C54 28 49 11 24 11C19 11 8 14 0 14C-4 14 -7 12 -7 7C-7 3 -5 0 0 0Z" fill="#111111"/></g>
<g transform="translate(8541.4112,1500) scale(1,-1)"><path d="M191 627C122 627 62 630 0 630C-5 630 -7 627 -7 623C-7 620 -5 616 0 616C7 616 17 619 27 619C52 619 54 587 56 555C60 494 61 422 61 350C61 248 58 147 56 75C54 28 49 11 24 11C20 11 7 13 0 13C-5 13 -7 10 -7 7C-7 3 -5 0 0 0C33 0 131 3 198 3C261 3 350 0 382 0C387 0 389 3 389 7C389 10 387 13 382 13C374 13 363 11 358 11C333 11 328 28 326 75C324 147 321 249 321 351C321 423 322 495 326 556C328 588 330 619 355 619C365 619 375 616 382 616C387 616 389 620 389 623C389 627 387 630 382 630C320 630 260 627 191 627Z" fill="#111111"/></g>
<g transform="translate(8963.4112,1500) scale(1,-1)"><path d="M88 451C138 404 271 215 355 29C364 9 373 0 393 0C426 0 464 4 503 4C533 4 567 0 595 0C609 0 613 8 613 26C613 64 598 234 598 290C598 546 645 589 645 621C645 626 642 630 636 630C610 628 580 627 548 627C516 627 482 628 445 630C438 630 434 625 434 617C434 487 588 403 588 237C588 228 583 224 578 224C574 224 569 227 565 231C456 349 338 524 338 612C338 623 333 630 320 630C271 630 207 626 158 626C104 626 49 630 0 630C-4 630 -6 627 -6 624C-6 620 -4 617 0 617C8 617 16 620 28 620C56 620 62 611 62 444C62 68 -5 33 -5 5C-5 2 -3 0 0 0C23 0 65 3 119 3C156 3 198 0 236 0C242 0 245 3 245 8C245 100 72 240 72 443C72 451 76 454 80 454C83 454 86 453 88 451Z" fill="#111111"/></g>
<g transform="translate(9662.4112,1500) scale(1,-1)"><path d="M655 150C655 305 663 329 700 329C705 329 713 328 719 328C723 328 725 330 725 334C725 338 722 340 719 340C694 340 596 335 528 335C457 335 368 341 317 341C311 341 308 337 308 333C308 330 310 325 316 325C324 325 351 329 359 329C390 329 401 300 401 188C401 47 379 19 347 19C300 19 287 96 287 269C287 560 302 634 339 634C364 634 379 600 398 557C432 479 480 370 629 370C640 370 642 375 642 387C642 413 639 455 640 489C641 543 648 597 648 640C648 647 644 650 640 650C636 650 632 648 632 642C632 639 635 630 635 620C635 598 615 593 598 593C537 593 484 645 352 645C110 645 10 519 10 263C10 38 133 -15 276 -15C436 -15 457 67 580 67C626 67 647 57 647 37C647 23 644 14 644 8C644 2 648 -1 652 -1C657 -1 660 2 660 8C660 25 655 70 655 150Z" fill="#111111"/></g>
<g transform="translate(10402.4112,1500) scale(1,-1)"><path d="M28 7C28 15 26 25 26 32C26 55 41 69 70 69C127 69 186 -15 310 -15C468 -15 566 40 566 191C566 334 465 400 336 467C253 510 228 551 228 588C228 617 246 635 273 635C370 635 415 384 522 384C533 384 539 389 539 397C539 416 534 455 534 488C534 542 540 594 540 639C540 648 538 651 533 651C529 651 526 648 526 642C526 634 529 628 529 618C529 601 513 591 491 591C448 591 362 645 276 645C90 645 20 556 20 430C20 308 113 235 218 182C306 137 351 90 351 40C351 7 332 -5 307 -5C219 -5 138 269 32 269C18 269 14 261 14 250C14 226 21 191 21 141C21 97 14 31 14 7C14 2 17 -1 21 -1C25 -1 28 2 28 7Z" fill="#111111"/></g>
<g transform="translate(11532.4112,1500) scale(1.1968,-1.1968)"><path d="M1081 165C1081 67 1049 20 996 20C959 20 952 67 975 120C1008 196 980 261 905 261C837 261 801 223 801 136C801 43 861 2 946 2C1037 2 1154 57 1154 241C1154 412 1057 504 914 504C613 504 588 -5 347 -5C266 -5 217 111 217 307C217 606 284 634 333 634C415 634 447 521 447 349C447 256 442 196 404 196C334 196 452 448 331 448C282 448 262 406 262 335C262 245 311 187 410 187C556 187 612 295 612 402C612 517 551 643 335 643C154 643 30 532 30 311C30 85 173 -15 358 -15C686 -15 702 325 918 325C1027 325 1081 275 1081 165Z" fill="#111111"/></g>
<text x="400" y="2680" font-size="260" fill="#D93A2B" font-family="Menlo, Monaco, monospace" font-weight="700">PAIR B</text>
<text x="400" y="2930" font-size="130" fill="#6B645A" font-family="Menlo, Monaco, monospace">U+E002 / U+E003</text>
<line x1="400" y1="4380" x2="12199.422400000001" y2="4380" stroke="#CFC4AF" stroke-width="6"/>
<g transform="translate(1511.6352000000002,3580) scale(1.1968,-1.1968)"><path d="M1041 265C1041 473 1011 595 985 670C983 676 978 678 974 678C958 678 908 672 824 672C747 672 698 679 669 679C663 679 660 675 660 670C660 603 1030 435 1030 209C1030 170 1018 136 979 136C827 136 851 600 562 601C428 600 358 526 358 400C358 273 457 160 660 160C673 160 675 165 675 173C675 189 671 197 671 217C671 241 681 259 724 259C770 259 795 241 795 184C795 120 750 70 672 70C475 70 405 327 202 327C91 327 28 262 28 167C28 78 78 -10 229 -10C302 -10 336 13 336 45C336 70 319 91 287 91C238 91 190 18 137 18C118 18 110 30 110 44C110 95 156 132 237 132C353 132 480 -10 635 -10C747 -10 805 50 805 185C805 300 768 355 690 355C649 355 609 338 609 281C609 226 666 200 666 177C666 171 664 170 657 170C600 170 551 230 551 305C551 396 598 433 681 433C925 433 817 -12 967 -12C1032 -12 1041 100 1041 265Z" fill="#111111"/></g>
<g transform="translate(3297.0112,3580) scale(1,-1)"><path d="M409 449C409 256 389 158 345 158C328 158 321 168 321 214C321 574 327 622 367 622C400 622 409 574 409 449ZM0 0C34 0 130 2 198 2C261 2 353 0 385 0C389 0 391 4 391 7C391 11 389 14 385 14C377 14 363 11 358 11C328 11 319 31 319 88C319 136 325 145 434 172C564 204 661 235 661 434C661 573 584 634 457 634C395 634 260 628 191 628C122 628 62 630 0 630C-4 630 -7 627 -7 623C-7 619 -5 616 0 616C7 616 17 619 27 619C52 619 54 588 56 556C60 495 61 423 61 351C61 249 58 147 56 75C54 28 49 11 24 11C20 11 7 14 0 14C-4 14 -7 11 -7 7C-7 3 -5 0 0 0Z" fill="#111111"/></g>
<g transform="translate(4003.0112,3580) scale(1,-1)"><path d="M133 7C164 7 231 0 244 0C251 0 254 5 254 12C254 38 214 113 214 174C214 196 225 204 270 204C325 204 332 196 332 88C332 37 322 11 306 11C297 11 289 14 282 14C277 14 274 11 274 7C274 3 276 0 282 0C295 0 430 5 489 5C561 5 630 0 658 0C662 0 664 3 664 7C664 11 663 14 660 20C596 147 503 470 503 616C503 626 497 630 489 630C469 630 389 624 303 624C236 624 114 631 80 631C74 631 71 627 71 623C71 619 74 615 80 615C92 615 108 619 121 619C151 619 179 609 179 545C179 419 3 155 3 17C3 4 10 0 24 0C46 0 92 7 133 7ZM178 405C178 504 192 559 221 559C245 559 254 530 283 417C307 324 318 276 318 243C318 225 312 214 269 214C201 214 178 222 178 405Z" fill="#111111"/></g>
<g transform="translate(4701.0112,3580) scale(1,-1)"><path d="M623 284C623 292 619 295 614 295C609 295 605 291 605 286C605 276 612 260 612 242C612 200 562 179 480 179C322 179 274 274 274 440C274 576 288 635 320 635C349 635 352 596 359 554C390 388 436 315 590 314C613 315 617 327 617 343C617 377 611 426 612 470C613 531 623 624 623 640C623 647 619 650 615 650C610 650 607 647 607 640C607 637 610 625 610 615C610 599 597 593 580 593C515 593 465 645 322 645C130 645 23 512 23 308C23 38 181 -15 354 -15C569 -15 623 107 623 284Z" fill="#111111"/></g>
<g transform="translate(5379.0112,3580) scale(1,-1)"><path d="M191 627C122 627 62 630 0 630C-5 630 -7 627 -7 623C-7 620 -5 616 0 616C7 616 17 619 27 619C52 619 54 587 56 555C60 494 61 422 61 350C61 248 58 147 56 75C54 28 49 11 24 11C20 11 7 13 0 13C-5 13 -7 10 -7 7C-7 3 -5 0 0 0C33 0 131 3 198 3C261 3 350 0 382 0C387 0 389 3 389 7C389 10 387 13 382 13C374 13 363 11 358 11C333 11 328 28 326 75C324 147 321 249 321 351C321 423 322 495 326 556C328 588 330 619 355 619C365 619 375 616 382 616C387 616 389 620 389 623C389 627 387 630 382 630C320 630 260 627 191 627Z" fill="#111111"/></g>
<g transform="translate(5801.0112,3580) scale(1,-1)"><path d="M0 0C33 0 131 6 198 6C273 6 380 0 418 0C422 0 425 2 425 6C425 10 423 13 418 13C404 13 380 11 371 11C338 11 328 28 326 75C325 118 323 179 323 228C323 249 328 255 337 255C390 255 428 104 490 104C497 104 502 109 502 114C502 144 496 202 496 251C496 303 504 356 504 377C504 389 499 391 492 391C424 391 383 265 337 265C327 265 323 270 323 288C323 374 325 470 330 554C332 586 336 617 368 617C439 617 452 370 580 370C591 370 595 375 595 381C595 403 589 460 589 514C589 560 594 593 594 613C594 623 589 630 575 630C515 630 290 626 196 626C125 626 64 630 0 630C-4 630 -7 627 -7 623C-7 619 -5 616 0 616C7 616 17 620 27 620C52 620 54 588 56 556C60 486 61 402 61 320C61 228 58 139 56 75C54 28 49 11 24 11C20 11 7 14 0 14C-4 14 -7 11 -7 7C-7 3 -5 0 0 0Z" fill="#111111"/></g>
<g transform="translate(6446.0112,3580) scale(1,-1)"><path d="M191 627C122 627 62 630 0 630C-5 630 -7 627 -7 623C-7 620 -5 616 0 616C7 616 17 619 27 619C52 619 54 587 56 555C60 494 61 422 61 350C61 248 58 147 56 75C54 28 49 11 24 11C20 11 7 13 0 13C-5 13 -7 10 -7 7C-7 3 -5 0 0 0C33 0 131 3 198 3C261 3 350 0 382 0C387 0 389 3 389 7C389 10 387 13 382 13C374 13 363 11 358 11C333 11 328 28 326 75C324 147 321 249 321 351C321 423 322 495 326 556C328 588 330 619 355 619C365 619 375 616 382 616C387 616 389 620 389 623C389 627 387 630 382 630C320 630 260 627 191 627Z" fill="#111111"/></g>
<g transform="translate(6868.0112,3580) scale(1,-1)"><path d="M623 284C623 292 619 295 614 295C609 295 605 291 605 286C605 276 612 260 612 242C612 200 562 179 480 179C322 179 274 274 274 440C274 576 288 635 320 635C349 635 352 596 359 554C390 388 436 315 590 314C613 315 617 327 617 343C617 377 611 426 612 470C613 531 623 624 623 640C623 647 619 650 615 650C610 650 607 647 607 640C607 637 610 625 610 615C610 599 597 593 580 593C515 593 465 645 322 645C130 645 23 512 23 308C23 38 181 -15 354 -15C569 -15 623 107 623 284Z" fill="#111111"/></g>
<g transform="translate(7805.4112000000005,3580) scale(1,-1)"><path d="M0 0C34 0 130 2 198 2C268 2 371 0 407 0C412 0 414 4 414 7C414 11 412 14 407 14C392 14 367 11 358 11C333 11 328 28 326 75C324 132 321 216 321 298C321 317 332 325 356 325C384 325 403 313 403 289C403 236 400 185 400 141C400 31 457 -10 554 -10C681 -9 693 36 693 113C693 150 690 168 680 168C677 168 674 166 674 161C674 149 683 135 683 114C683 96 673 92 667 92C657 92 652 96 652 117C652 173 654 227 654 263C654 337 599 367 540 367C468 367 414 335 363 335C355 335 351 340 351 344C351 348 353 351 357 353C490 417 683 433 683 616C683 627 678 630 670 630C633 630 576 626 534 626C495 626 450 630 417 630C412 630 409 626 409 622C409 610 416 600 416 557C416 499 390 356 336 356C325 356 321 361 321 386C321 459 322 530 326 578C328 611 334 619 348 619C355 619 363 617 368 617C373 617 375 620 375 624C375 627 373 630 368 630C310 630 255 628 191 628C122 628 62 630 0 630C-4 630 -7 628 -7 623C-7 619 -5 616 0 616C7 616 17 619 27 619C52 619 54 588 56 556C60 495 61 423 61 351C61 249 58 147 56 75C54 28 49 11 24 11C19 11 8 14 0 14C-4 14 -7 12 -7 7C-7 3 -5 0 0 0Z" fill="#111111"/></g>
<g transform="translate(8541.4112,3580) scale(1,-1)"><path d="M191 627C122 627 62 630 0 630C-5 630 -7 627 -7 623C-7 620 -5 616 0 616C7 616 17 619 27 619C52 619 54 587 56 555C60 494 61 422 61 350C61 248 58 147 56 75C54 28 49 11 24 11C20 11 7 13 0 13C-5 13 -7 10 -7 7C-7 3 -5 0 0 0C33 0 131 3 198 3C261 3 350 0 382 0C387 0 389 3 389 7C389 10 387 13 382 13C374 13 363 11 358 11C333 11 328 28 326 75C324 147 321 249 321 351C321 423 322 495 326 556C328 588 330 619 355 619C365 619 375 616 382 616C387 616 389 620 389 623C389 627 387 630 382 630C320 630 260 627 191 627Z" fill="#111111"/></g>
<g transform="translate(8963.4112,3580) scale(1,-1)"><path d="M88 451C138 404 271 215 355 29C364 9 373 0 393 0C426 0 464 4 503 4C533 4 567 0 595 0C609 0 613 8 613 26C613 64 598 234 598 290C598 546 645 589 645 621C645 626 642 630 636 630C610 628 580 627 548 627C516 627 482 628 445 630C438 630 434 625 434 617C434 487 588 403 588 237C588 228 583 224 578 224C574 224 569 227 565 231C456 349 338 524 338 612C338 623 333 630 320 630C271 630 207 626 158 626C104 626 49 630 0 630C-4 630 -6 627 -6 624C-6 620 -4 617 0 617C8 617 16 620 28 620C56 620 62 611 62 444C62 68 -5 33 -5 5C-5 2 -3 0 0 0C23 0 65 3 119 3C156 3 198 0 236 0C242 0 245 3 245 8C245 100 72 240 72 443C72 451 76 454 80 454C83 454 86 453 88 451Z" fill="#111111"/></g>
<g transform="translate(9662.4112,3580) scale(1,-1)"><path d="M655 150C655 305 663 329 700 329C705 329 713 328 719 328C723 328 725 330 725 334C725 338 722 340 719 340C694 340 596 335 528 335C457 335 368 341 317 341C311 341 308 337 308 333C308 330 310 325 316 325C324 325 351 329 359 329C390 329 401 300 401 188C401 47 379 19 347 19C300 19 287 96 287 269C287 560 302 634 339 634C364 634 379 600 398 557C432 479 480 370 629 370C640 370 642 375 642 387C642 413 639 455 640 489C641 543 648 597 648 640C648 647 644 650 640 650C636 650 632 648 632 642C632 639 635 630 635 620C635 598 615 593 598 593C537 593 484 645 352 645C110 645 10 519 10 263C10 38 133 -15 276 -15C436 -15 457 67 580 67C626 67 647 57 647 37C647 23 644 14 644 8C644 2 648 -1 652 -1C657 -1 660 2 660 8C660 25 655 70 655 150Z" fill="#111111"/></g>
<g transform="translate(10402.4112,3580) scale(1,-1)"><path d="M28 7C28 15 26 25 26 32C26 55 41 69 70 69C127 69 186 -15 310 -15C468 -15 566 40 566 191C566 334 465 400 336 467C253 510 228 551 228 588C228 617 246 635 273 635C370 635 415 384 522 384C533 384 539 389 539 397C539 416 534 455 534 488C534 542 540 594 540 639C540 648 538 651 533 651C529 651 526 648 526 642C526 634 529 628 529 618C529 601 513 591 491 591C448 591 362 645 276 645C90 645 20 556 20 430C20 308 113 235 218 182C306 137 351 90 351 40C351 7 332 -5 307 -5C219 -5 138 269 32 269C18 269 14 261 14 250C14 226 21 191 21 141C21 97 14 31 14 7C14 2 17 -1 21 -1C25 -1 28 2 28 7Z" fill="#111111"/></g>
<g transform="translate(11594.046400000001,3580) scale(1.1968,-1.1968)"><path d="M28 265C28 100 37 -12 102 -12C252 -12 144 433 388 433C471 433 518 396 518 305C518 230 469 170 412 170C405 170 403 171 403 177C403 200 460 226 460 281C460 338 420 355 379 355C301 355 264 300 264 185C264 50 322 -10 434 -10C589 -10 716 132 832 132C913 132 959 95 959 44C959 30 951 18 932 18C879 18 831 91 782 91C750 91 733 70 733 45C733 13 767 -10 840 -10C991 -10 1041 78 1041 167C1041 262 978 327 867 327C664 327 594 70 397 70C319 70 274 120 274 184C274 241 299 259 345 259C388 259 398 241 398 217C398 197 394 189 394 173C394 165 396 160 409 160C612 160 711 273 711 400C711 526 641 600 507 601C218 600 242 136 90 136C51 136 39 170 39 209C39 435 409 603 409 670C409 675 406 679 400 679C371 679 322 672 245 672C161 672 111 678 95 678C91 678 86 676 84 670C58 595 28 473 28 265Z" fill="#111111"/></g>
<rect x="0" y="4500" width="12599.422400000001" height="2080" fill="#FFFDF8"/>
<text x="400" y="4760" font-size="260" fill="#D93A2B" font-family="Menlo, Monaco, monospace" font-weight="700">PAIR C</text>
<text x="400" y="5010" font-size="130" fill="#6B645A" font-family="Menlo, Monaco, monospace">U+E004 / U+E005</text>
<line x1="400" y1="6460" x2="12199.422400000001" y2="6460" stroke="#CFC4AF" stroke-width="6"/>
<g transform="translate(1579.8528000000001,5660) scale(1.1968,-1.1968)"><path d="M927 63C927 117 907 168 842 168C793 168 762 137 762 85C762 11 839 13 839 -14C839 -37 817 -47 793 -47C750 -47 719 -7 719 60C719 179 932 289 932 468C932 625 840 717 629 717C435 717 335 635 335 501C335 371 442 318 556 318C659 318 686 378 686 451C686 528 655 562 610 562C565 562 543 532 543 499C543 419 675 465 675 426C675 404 661 367 597 367C537 367 509 414 509 484C509 625 550 707 628 707C701 707 727 639 727 459C727 360 686 199 686 133C686 21 725 4 725 -24C725 -30 722 -33 713 -33C628 -33 514 368 243 368C97 368 32 277 32 182C32 68 102 -4 223 -4C327 -4 368 43 368 108C368 159 333 204 280 204C238 204 200 181 200 133C200 47 351 126 351 77C351 37 307 27 270 27C200 27 159 70 159 128C159 182 195 234 285 234C426 234 582 -57 783 -57C869 -57 927 -18 927 63Z" fill="#111111"/></g>
<g transform="translate(3297.0112,5660) scale(1,-1)"><path d="M409 449C409 256 389 158 345 158C328 158 321 168 321 214C321 574 327 622 367 622C400 622 409 574 409 449ZM0 0C34 0 130 2 198 2C261 2 353 0 385 0C389 0 391 4 391 7C391 11 389 14 385 14C377 14 363 11 358 11C328 11 319 31 319 88C319 136 325 145 434 172C564 204 661 235 661 434C661 573 584 634 457 634C395 634 260 628 191 628C122 628 62 630 0 630C-4 630 -7 627 -7 623C-7 619 -5 616 0 616C7 616 17 619 27 619C52 619 54 588 56 556C60 495 61 423 61 351C61 249 58 147 56 75C54 28 49 11 24 11C20 11 7 14 0 14C-4 14 -7 11 -7 7C-7 3 -5 0 0 0Z" fill="#111111"/></g>
<g transform="translate(4003.0112,5660) scale(1,-1)"><path d="M133 7C164 7 231 0 244 0C251 0 254 5 254 12C254 38 214 113 214 174C214 196 225 204 270 204C325 204 332 196 332 88C332 37 322 11 306 11C297 11 289 14 282 14C277 14 274 11 274 7C274 3 276 0 282 0C295 0 430 5 489 5C561 5 630 0 658 0C662 0 664 3 664 7C664 11 663 14 660 20C596 147 503 470 503 616C503 626 497 630 489 630C469 630 389 624 303 624C236 624 114 631 80 631C74 631 71 627 71 623C71 619 74 615 80 615C92 615 108 619 121 619C151 619 179 609 179 545C179 419 3 155 3 17C3 4 10 0 24 0C46 0 92 7 133 7ZM178 405C178 504 192 559 221 559C245 559 254 530 283 417C307 324 318 276 318 243C318 225 312 214 269 214C201 214 178 222 178 405Z" fill="#111111"/></g>
<g transform="translate(4701.0112,5660) scale(1,-1)"><path d="M623 284C623 292 619 295 614 295C609 295 605 291 605 286C605 276 612 260 612 242C612 200 562 179 480 179C322 179 274 274 274 440C274 576 288 635 320 635C349 635 352 596 359 554C390 388 436 315 590 314C613 315 617 327 617 343C617 377 611 426 612 470C613 531 623 624 623 640C623 647 619 650 615 650C610 650 607 647 607 640C607 637 610 625 610 615C610 599 597 593 580 593C515 593 465 645 322 645C130 645 23 512 23 308C23 38 181 -15 354 -15C569 -15 623 107 623 284Z" fill="#111111"/></g>
<g transform="translate(5379.0112,5660) scale(1,-1)"><path d="M191 627C122 627 62 630 0 630C-5 630 -7 627 -7 623C-7 620 -5 616 0 616C7 616 17 619 27 619C52 619 54 587 56 555C60 494 61 422 61 350C61 248 58 147 56 75C54 28 49 11 24 11C20 11 7 13 0 13C-5 13 -7 10 -7 7C-7 3 -5 0 0 0C33 0 131 3 198 3C261 3 350 0 382 0C387 0 389 3 389 7C389 10 387 13 382 13C374 13 363 11 358 11C333 11 328 28 326 75C324 147 321 249 321 351C321 423 322 495 326 556C328 588 330 619 355 619C365 619 375 616 382 616C387 616 389 620 389 623C389 627 387 630 382 630C320 630 260 627 191 627Z" fill="#111111"/></g>
<g transform="translate(5801.0112,5660) scale(1,-1)"><path d="M0 0C33 0 131 6 198 6C273 6 380 0 418 0C422 0 425 2 425 6C425 10 423 13 418 13C404 13 380 11 371 11C338 11 328 28 326 75C325 118 323 179 323 228C323 249 328 255 337 255C390 255 428 104 490 104C497 104 502 109 502 114C502 144 496 202 496 251C496 303 504 356 504 377C504 389 499 391 492 391C424 391 383 265 337 265C327 265 323 270 323 288C323 374 325 470 330 554C332 586 336 617 368 617C439 617 452 370 580 370C591 370 595 375 595 381C595 403 589 460 589 514C589 560 594 593 594 613C594 623 589 630 575 630C515 630 290 626 196 626C125 626 64 630 0 630C-4 630 -7 627 -7 623C-7 619 -5 616 0 616C7 616 17 620 27 620C52 620 54 588 56 556C60 486 61 402 61 320C61 228 58 139 56 75C54 28 49 11 24 11C20 11 7 14 0 14C-4 14 -7 11 -7 7C-7 3 -5 0 0 0Z" fill="#111111"/></g>
<g transform="translate(6446.0112,5660) scale(1,-1)"><path d="M191 627C122 627 62 630 0 630C-5 630 -7 627 -7 623C-7 620 -5 616 0 616C7 616 17 619 27 619C52 619 54 587 56 555C60 494 61 422 61 350C61 248 58 147 56 75C54 28 49 11 24 11C20 11 7 13 0 13C-5 13 -7 10 -7 7C-7 3 -5 0 0 0C33 0 131 3 198 3C261 3 350 0 382 0C387 0 389 3 389 7C389 10 387 13 382 13C374 13 363 11 358 11C333 11 328 28 326 75C324 147 321 249 321 351C321 423 322 495 326 556C328 588 330 619 355 619C365 619 375 616 382 616C387 616 389 620 389 623C389 627 387 630 382 630C320 630 260 627 191 627Z" fill="#111111"/></g>
<g transform="translate(6868.0112,5660) scale(1,-1)"><path d="M623 284C623 292 619 295 614 295C609 295 605 291 605 286C605 276 612 260 612 242C612 200 562 179 480 179C322 179 274 274 274 440C274 576 288 635 320 635C349 635 352 596 359 554C390 388 436 315 590 314C613 315 617 327 617 343C617 377 611 426 612 470C613 531 623 624 623 640C623 647 619 650 615 650C610 650 607 647 607 640C607 637 610 625 610 615C610 599 597 593 580 593C515 593 465 645 322 645C130 645 23 512 23 308C23 38 181 -15 354 -15C569 -15 623 107 623 284Z" fill="#111111"/></g>
<g transform="translate(7805.4112000000005,5660) scale(1,-1)"><path d="M0 0C34 0 130 2 198 2C268 2 371 0 407 0C412 0 414 4 414 7C414 11 412 14 407 14C392 14 367 11 358 11C333 11 328 28 326 75C324 132 321 216 321 298C321 317 332 325 356 325C384 325 403 313 403 289C403 236 400 185 400 141C400 31 457 -10 554 -10C681 -9 693 36 693 113C693 150 690 168 680 168C677 168 674 166 674 161C674 149 683 135 683 114C683 96 673 92 667 92C657 92 652 96 652 117C652 173 654 227 654 263C654 337 599 367 540 367C468 367 414 335 363 335C355 335 351 340 351 344C351 348 353 351 357 353C490 417 683 433 683 616C683 627 678 630 670 630C633 630 576 626 534 626C495 626 450 630 417 630C412 630 409 626 409 622C409 610 416 600 416 557C416 499 390 356 336 356C325 356 321 361 321 386C321 459 322 530 326 578C328 611 334 619 348 619C355 619 363 617 368 617C373 617 375 620 375 624C375 627 373 630 368 630C310 630 255 628 191 628C122 628 62 630 0 630C-4 630 -7 628 -7 623C-7 619 -5 616 0 616C7 616 17 619 27 619C52 619 54 588 56 556C60 495 61 423 61 351C61 249 58 147 56 75C54 28 49 11 24 11C19 11 8 14 0 14C-4 14 -7 12 -7 7C-7 3 -5 0 0 0Z" fill="#111111"/></g>
<g transform="translate(8541.4112,5660) scale(1,-1)"><path d="M191 627C122 627 62 630 0 630C-5 630 -7 627 -7 623C-7 620 -5 616 0 616C7 616 17 619 27 619C52 619 54 587 56 555C60 494 61 422 61 350C61 248 58 147 56 75C54 28 49 11 24 11C20 11 7 13 0 13C-5 13 -7 10 -7 7C-7 3 -5 0 0 0C33 0 131 3 198 3C261 3 350 0 382 0C387 0 389 3 389 7C389 10 387 13 382 13C374 13 363 11 358 11C333 11 328 28 326 75C324 147 321 249 321 351C321 423 322 495 326 556C328 588 330 619 355 619C365 619 375 616 382 616C387 616 389 620 389 623C389 627 387 630 382 630C320 630 260 627 191 627Z" fill="#111111"/></g>
<g transform="translate(8963.4112,5660) scale(1,-1)"><path d="M88 451C138 404 271 215 355 29C364 9 373 0 393 0C426 0 464 4 503 4C533 4 567 0 595 0C609 0 613 8 613 26C613 64 598 234 598 290C598 546 645 589 645 621C645 626 642 630 636 630C610 628 580 627 548 627C516 627 482 628 445 630C438 630 434 625 434 617C434 487 588 403 588 237C588 228 583 224 578 224C574 224 569 227 565 231C456 349 338 524 338 612C338 623 333 630 320 630C271 630 207 626 158 626C104 626 49 630 0 630C-4 630 -6 627 -6 624C-6 620 -4 617 0 617C8 617 16 620 28 620C56 620 62 611 62 444C62 68 -5 33 -5 5C-5 2 -3 0 0 0C23 0 65 3 119 3C156 3 198 0 236 0C242 0 245 3 245 8C245 100 72 240 72 443C72 451 76 454 80 454C83 454 86 453 88 451Z" fill="#111111"/></g>
<g transform="translate(9662.4112,5660) scale(1,-1)"><path d="M655 150C655 305 663 329 700 329C705 329 713 328 719 328C723 328 725 330 725 334C725 338 722 340 719 340C694 340 596 335 528 335C457 335 368 341 317 341C311 341 308 337 308 333C308 330 310 325 316 325C324 325 351 329 359 329C390 329 401 300 401 188C401 47 379 19 347 19C300 19 287 96 287 269C287 560 302 634 339 634C364 634 379 600 398 557C432 479 480 370 629 370C640 370 642 375 642 387C642 413 639 455 640 489C641 543 648 597 648 640C648 647 644 650 640 650C636 650 632 648 632 642C632 639 635 630 635 620C635 598 615 593 598 593C537 593 484 645 352 645C110 645 10 519 10 263C10 38 133 -15 276 -15C436 -15 457 67 580 67C626 67 647 57 647 37C647 23 644 14 644 8C644 2 648 -1 652 -1C657 -1 660 2 660 8C660 25 655 70 655 150Z" fill="#111111"/></g>
<g transform="translate(10402.4112,5660) scale(1,-1)"><path d="M28 7C28 15 26 25 26 32C26 55 41 69 70 69C127 69 186 -15 310 -15C468 -15 566 40 566 191C566 334 465 400 336 467C253 510 228 551 228 588C228 617 246 635 273 635C370 635 415 384 522 384C533 384 539 389 539 397C539 416 534 455 534 488C534 542 540 594 540 639C540 648 538 651 533 651C529 651 526 648 526 642C526 634 529 628 529 618C529 601 513 591 491 591C448 591 362 645 276 645C90 645 20 556 20 430C20 308 113 235 218 182C306 137 351 90 351 40C351 7 332 -5 307 -5C219 -5 138 269 32 269C18 269 14 261 14 250C14 226 21 191 21 141C21 97 14 31 14 7C14 2 17 -1 21 -1C25 -1 28 2 28 7Z" fill="#111111"/></g>
<g transform="translate(11662.264000000001,5660) scale(1.1968,-1.1968)"><path d="M37 63C37 -18 95 -57 181 -57C382 -57 538 234 679 234C769 234 805 182 805 128C805 70 764 27 694 27C657 27 613 37 613 77C613 126 764 47 764 133C764 181 726 204 684 204C631 204 596 159 596 108C596 43 637 -4 741 -4C862 -4 932 68 932 182C932 277 867 368 721 368C450 368 336 -33 251 -33C242 -33 239 -30 239 -24C239 4 278 21 278 133C278 199 237 360 237 459C237 639 263 707 336 707C414 707 455 625 455 484C455 414 427 367 367 367C303 367 289 404 289 426C289 465 421 419 421 499C421 532 399 562 354 562C309 562 278 528 278 451C278 378 305 318 408 318C522 318 629 371 629 501C629 635 529 717 335 717C124 717 32 625 32 468C32 289 245 179 245 60C245 -7 214 -47 171 -47C147 -47 125 -37 125 -14C125 13 202 11 202 85C202 137 171 168 122 168C57 168 37 117 37 63Z" fill="#111111"/></g>
<text x="400" y="6840" font-size="260" fill="#D93A2B" font-family="Menlo, Monaco, monospace" font-weight="700">PAIR D</text>
<text x="400" y="7090" font-size="130" fill="#6B645A" font-family="Menlo, Monaco, monospace">U+E006 / U+E007</text>
<line x1="400" y1="8540" x2="12199.422400000001" y2="8540" stroke="#CFC4AF" stroke-width="6"/>
<g transform="translate(1486.5024,7740) scale(1.1968,-1.1968)"><path d="M1074 236C1074 470 1049 611 992 692C989 697 985 698 981 698C928 698 784 639 674 639C667 639 663 635 663 629C663 534 1064 378 1064 220C1064 172 1044 141 992 141C847 141 897 494 639 494C496 494 410 402 410 243C410 161 431 142 431 122C431 113 427 107 420 104C392 92 353 88 306 88C193 88 167 130 167 256C167 323 179 341 201 341C252 341 172 143 289 143C340 143 382 194 382 245C382 299 345 352 232 352C72 352 20 251 20 169C20 75 76 -11 215 -11C312 -11 376 43 432 99C440 105 444 105 450 97C492 35 556 -10 647 -10C791 -10 826 64 826 133C826 229 768 285 678 285C651 285 631 279 613 270C604 265 602 269 602 276C602 308 643 350 731 350C886 350 906 205 881 10C880 2 883 0 892 0C914 0 962 5 993 5C1018 5 1063 0 1089 0C1100 0 1103 3 1103 13C1103 53 1074 97 1074 236ZM586 178C586 244 596 266 641 266C671 266 689 220 689 113C689 27 675 0 643 0C612 0 586 54 586 178Z" fill="#111111"/></g>
<g transform="translate(3297.0112,7740) scale(1,-1)"><path d="M409 449C409 256 389 158 345 158C328 158 321 168 321 214C321 574 327 622 367 622C400 622 409 574 409 449ZM0 0C34 0 130 2 198 2C261 2 353 0 385 0C389 0 391 4 391 7C391 11 389 14 385 14C377 14 363 11 358 11C328 11 319 31 319 88C319 136 325 145 434 172C564 204 661 235 661 434C661 573 584 634 457 634C395 634 260 628 191 628C122 628 62 630 0 630C-4 630 -7 627 -7 623C-7 619 -5 616 0 616C7 616 17 619 27 619C52 619 54 588 56 556C60 495 61 423 61 351C61 249 58 147 56 75C54 28 49 11 24 11C20 11 7 14 0 14C-4 14 -7 11 -7 7C-7 3 -5 0 0 0Z" fill="#111111"/></g>
<g transform="translate(4003.0112,7740) scale(1,-1)"><path d="M133 7C164 7 231 0 244 0C251 0 254 5 254 12C254 38 214 113 214 174C214 196 225 204 270 204C325 204 332 196 332 88C332 37 322 11 306 11C297 11 289 14 282 14C277 14 274 11 274 7C274 3 276 0 282 0C295 0 430 5 489 5C561 5 630 0 658 0C662 0 664 3 664 7C664 11 663 14 660 20C596 147 503 470 503 616C503 626 497 630 489 630C469 630 389 624 303 624C236 624 114 631 80 631C74 631 71 627 71 623C71 619 74 615 80 615C92 615 108 619 121 619C151 619 179 609 179 545C179 419 3 155 3 17C3 4 10 0 24 0C46 0 92 7 133 7ZM178 405C178 504 192 559 221 559C245 559 254 530 283 417C307 324 318 276 318 243C318 225 312 214 269 214C201 214 178 222 178 405Z" fill="#111111"/></g>
<g transform="translate(4701.0112,7740) scale(1,-1)"><path d="M623 284C623 292 619 295 614 295C609 295 605 291 605 286C605 276 612 260 612 242C612 200 562 179 480 179C322 179 274 274 274 440C274 576 288 635 320 635C349 635 352 596 359 554C390 388 436 315 590 314C613 315 617 327 617 343C617 377 611 426 612 470C613 531 623 624 623 640C623 647 619 650 615 650C610 650 607 647 607 640C607 637 610 625 610 615C610 599 597 593 580 593C515 593 465 645 322 645C130 645 23 512 23 308C23 38 181 -15 354 -15C569 -15 623 107 623 284Z" fill="#111111"/></g>
<g transform="translate(5379.0112,7740) scale(1,-1)"><path d="M191 627C122 627 62 630 0 630C-5 630 -7 627 -7 623C-7 620 -5 616 0 616C7 616 17 619 27 619C52 619 54 587 56 555C60 494 61 422 61 350C61 248 58 147 56 75C54 28 49 11 24 11C20 11 7 13 0 13C-5 13 -7 10 -7 7C-7 3 -5 0 0 0C33 0 131 3 198 3C261 3 350 0 382 0C387 0 389 3 389 7C389 10 387 13 382 13C374 13 363 11 358 11C333 11 328 28 326 75C324 147 321 249 321 351C321 423 322 495 326 556C328 588 330 619 355 619C365 619 375 616 382 616C387 616 389 620 389 623C389 627 387 630 382 630C320 630 260 627 191 627Z" fill="#111111"/></g>
<g transform="translate(5801.0112,7740) scale(1,-1)"><path d="M0 0C33 0 131 6 198 6C273 6 380 0 418 0C422 0 425 2 425 6C425 10 423 13 418 13C404 13 380 11 371 11C338 11 328 28 326 75C325 118 323 179 323 228C323 249 328 255 337 255C390 255 428 104 490 104C497 104 502 109 502 114C502 144 496 202 496 251C496 303 504 356 504 377C504 389 499 391 492 391C424 391 383 265 337 265C327 265 323 270 323 288C323 374 325 470 330 554C332 586 336 617 368 617C439 617 452 370 580 370C591 370 595 375 595 381C595 403 589 460 589 514C589 560 594 593 594 613C594 623 589 630 575 630C515 630 290 626 196 626C125 626 64 630 0 630C-4 630 -7 627 -7 623C-7 619 -5 616 0 616C7 616 17 620 27 620C52 620 54 588 56 556C60 486 61 402 61 320C61 228 58 139 56 75C54 28 49 11 24 11C20 11 7 14 0 14C-4 14 -7 11 -7 7C-7 3 -5 0 0 0Z" fill="#111111"/></g>
<g transform="translate(6446.0112,7740) scale(1,-1)"><path d="M191 627C122 627 62 630 0 630C-5 630 -7 627 -7 623C-7 620 -5 616 0 616C7 616 17 619 27 619C52 619 54 587 56 555C60 494 61 422 61 350C61 248 58 147 56 75C54 28 49 11 24 11C20 11 7 13 0 13C-5 13 -7 10 -7 7C-7 3 -5 0 0 0C33 0 131 3 198 3C261 3 350 0 382 0C387 0 389 3 389 7C389 10 387 13 382 13C374 13 363 11 358 11C333 11 328 28 326 75C324 147 321 249 321 351C321 423 322 495 326 556C328 588 330 619 355 619C365 619 375 616 382 616C387 616 389 620 389 623C389 627 387 630 382 630C320 630 260 627 191 627Z" fill="#111111"/></g>
<g transform="translate(6868.0112,7740) scale(1,-1)"><path d="M623 284C623 292 619 295 614 295C609 295 605 291 605 286C605 276 612 260 612 242C612 200 562 179 480 179C322 179 274 274 274 440C274 576 288 635 320 635C349 635 352 596 359 554C390 388 436 315 590 314C613 315 617 327 617 343C617 377 611 426 612 470C613 531 623 624 623 640C623 647 619 650 615 650C610 650 607 647 607 640C607 637 610 625 610 615C610 599 597 593 580 593C515 593 465 645 322 645C130 645 23 512 23 308C23 38 181 -15 354 -15C569 -15 623 107 623 284Z" fill="#111111"/></g>
<g transform="translate(7805.4112000000005,7740) scale(1,-1)"><path d="M0 0C34 0 130 2 198 2C268 2 371 0 407 0C412 0 414 4 414 7C414 11 412 14 407 14C392 14 367 11 358 11C333 11 328 28 326 75C324 132 321 216 321 298C321 317 332 325 356 325C384 325 403 313 403 289C403 236 400 185 400 141C400 31 457 -10 554 -10C681 -9 693 36 693 113C693 150 690 168 680 168C677 168 674 166 674 161C674 149 683 135 683 114C683 96 673 92 667 92C657 92 652 96 652 117C652 173 654 227 654 263C654 337 599 367 540 367C468 367 414 335 363 335C355 335 351 340 351 344C351 348 353 351 357 353C490 417 683 433 683 616C683 627 678 630 670 630C633 630 576 626 534 626C495 626 450 630 417 630C412 630 409 626 409 622C409 610 416 600 416 557C416 499 390 356 336 356C325 356 321 361 321 386C321 459 322 530 326 578C328 611 334 619 348 619C355 619 363 617 368 617C373 617 375 620 375 624C375 627 373 630 368 630C310 630 255 628 191 628C122 628 62 630 0 630C-4 630 -7 628 -7 623C-7 619 -5 616 0 616C7 616 17 619 27 619C52 619 54 588 56 556C60 495 61 423 61 351C61 249 58 147 56 75C54 28 49 11 24 11C19 11 8 14 0 14C-4 14 -7 12 -7 7C-7 3 -5 0 0 0Z" fill="#111111"/></g>
<g transform="translate(8541.4112,7740) scale(1,-1)"><path d="M191 627C122 627 62 630 0 630C-5 630 -7 627 -7 623C-7 620 -5 616 0 616C7 616 17 619 27 619C52 619 54 587 56 555C60 494 61 422 61 350C61 248 58 147 56 75C54 28 49 11 24 11C20 11 7 13 0 13C-5 13 -7 10 -7 7C-7 3 -5 0 0 0C33 0 131 3 198 3C261 3 350 0 382 0C387 0 389 3 389 7C389 10 387 13 382 13C374 13 363 11 358 11C333 11 328 28 326 75C324 147 321 249 321 351C321 423 322 495 326 556C328 588 330 619 355 619C365 619 375 616 382 616C387 616 389 620 389 623C389 627 387 630 382 630C320 630 260 627 191 627Z" fill="#111111"/></g>
<g transform="translate(8963.4112,7740) scale(1,-1)"><path d="M88 451C138 404 271 215 355 29C364 9 373 0 393 0C426 0 464 4 503 4C533 4 567 0 595 0C609 0 613 8 613 26C613 64 598 234 598 290C598 546 645 589 645 621C645 626 642 630 636 630C610 628 580 627 548 627C516 627 482 628 445 630C438 630 434 625 434 617C434 487 588 403 588 237C588 228 583 224 578 224C574 224 569 227 565 231C456 349 338 524 338 612C338 623 333 630 320 630C271 630 207 626 158 626C104 626 49 630 0 630C-4 630 -6 627 -6 624C-6 620 -4 617 0 617C8 617 16 620 28 620C56 620 62 611 62 444C62 68 -5 33 -5 5C-5 2 -3 0 0 0C23 0 65 3 119 3C156 3 198 0 236 0C242 0 245 3 245 8C245 100 72 240 72 443C72 451 76 454 80 454C83 454 86 453 88 451Z" fill="#111111"/></g>
<g transform="translate(9662.4112,7740) scale(1,-1)"><path d="M655 150C655 305 663 329 700 329C705 329 713 328 719 328C723 328 725 330 725 334C725 338 722 340 719 340C694 340 596 335 528 335C457 335 368 341 317 341C311 341 308 337 308 333C308 330 310 325 316 325C324 325 351 329 359 329C390 329 401 300 401 188C401 47 379 19 347 19C300 19 287 96 287 269C287 560 302 634 339 634C364 634 379 600 398 557C432 479 480 370 629 370C640 370 642 375 642 387C642 413 639 455 640 489C641 543 648 597 648 640C648 647 644 650 640 650C636 650 632 648 632 642C632 639 635 630 635 620C635 598 615 593 598 593C537 593 484 645 352 645C110 645 10 519 10 263C10 38 133 -15 276 -15C436 -15 457 67 580 67C626 67 647 57 647 37C647 23 644 14 644 8C644 2 648 -1 652 -1C657 -1 660 2 660 8C660 25 655 70 655 150Z" fill="#111111"/></g>
<g transform="translate(10402.4112,7740) scale(1,-1)"><path d="M28 7C28 15 26 25 26 32C26 55 41 69 70 69C127 69 186 -15 310 -15C468 -15 566 40 566 191C566 334 465 400 336 467C253 510 228 551 228 588C228 617 246 635 273 635C370 635 415 384 522 384C533 384 539 389 539 397C539 416 534 455 534 488C534 542 540 594 540 639C540 648 538 651 533 651C529 651 526 648 526 642C526 634 529 628 529 618C529 601 513 591 491 591C448 591 362 645 276 645C90 645 20 556 20 430C20 308 113 235 218 182C306 137 351 90 351 40C351 7 332 -5 307 -5C219 -5 138 269 32 269C18 269 14 261 14 250C14 226 21 191 21 141C21 97 14 31 14 7C14 2 17 -1 21 -1C25 -1 28 2 28 7Z" fill="#111111"/></g>
<g transform="translate(11568.9136,7740) scale(1.1968,-1.1968)"><path d="M49 236C49 97 20 53 20 13C20 3 23 0 34 0C60 0 105 5 130 5C161 5 209 0 231 0C240 0 243 2 242 10C217 205 237 350 392 350C480 350 521 308 521 276C521 269 519 265 510 270C492 279 472 285 445 285C355 285 297 229 297 133C297 64 332 -10 476 -10C567 -10 631 35 673 97C679 105 683 105 691 99C747 43 811 -11 908 -11C1047 -11 1103 75 1103 169C1103 251 1051 352 891 352C778 352 741 299 741 245C741 194 783 143 834 143C951 143 871 341 922 341C944 341 956 323 956 256C956 130 930 88 817 88C770 88 731 92 703 104C696 107 692 113 692 122C692 142 713 161 713 243C713 402 627 494 484 494C226 494 276 141 131 141C79 141 59 172 59 220C59 378 460 534 460 629C460 635 456 639 449 639C339 639 195 698 142 698C138 698 134 697 131 692C74 611 49 470 49 236ZM537 178C537 54 511 0 480 0C448 0 434 27 434 113C434 220 452 266 482 266C527 266 537 244 537 178Z" fill="#111111"/></g>
<rect x="0" y="8660" width="12599.422400000001" height="2080" fill="#FFFDF8"/>
<text x="400" y="8920" font-size="260" fill="#D93A2B" font-family="Menlo, Monaco, monospace" font-weight="700">PAIR E</text>
<text x="400" y="9170" font-size="130" fill="#6B645A" font-family="Menlo, Monaco, monospace">U+E008 / U+E009</text>
<line x1="400" y1="10620" x2="12199.422400000001" y2="10620" stroke="#CFC4AF" stroke-width="6"/>
<g transform="translate(1611.568,9820) scale(1.1968,-1.1968)"><path d="M840 122C840 253 695 447 695 558C695 622 737 651 791 651C813 651 833 642 833 624C833 595 720 618 720 525C720 473 759 453 793 453C848 453 884 492 884 552C884 611 844 673 730 673C630 673 565 618 565 519C565 309 827 286 827 76C827 71 821 70 818 74C747 176 556 240 556 391C556 424 566 440 566 453C566 457 562 460 556 460C488 460 427 394 427 323C427 132 812 142 812 55C812 50 809 46 803 50C688 122 394 143 394 306C394 342 404 361 404 375C404 378 401 380 396 380C330 380 271 328 271 265C271 60 675 118 786 53C797 46 797 39 797 36C797 24 776 5 717 5C430 5 287 213 154 213C65 213 30 148 30 71C30 17 46 -8 61 -8C64 -8 66 -7 67 -4C79 32 104 61 156 61C273 61 510 -7 694 -7C754 -7 840 6 840 122Z" fill="#111111"/></g>
<g transform="translate(3297.0112,9820) scale(1,-1)"><path d="M409 449C409 256 389 158 345 158C328 158 321 168 321 214C321 574 327 622 367 622C400 622 409 574 409 449ZM0 0C34 0 130 2 198 2C261 2 353 0 385 0C389 0 391 4 391 7C391 11 389 14 385 14C377 14 363 11 358 11C328 11 319 31 319 88C319 136 325 145 434 172C564 204 661 235 661 434C661 573 584 634 457 634C395 634 260 628 191 628C122 628 62 630 0 630C-4 630 -7 627 -7 623C-7 619 -5 616 0 616C7 616 17 619 27 619C52 619 54 588 56 556C60 495 61 423 61 351C61 249 58 147 56 75C54 28 49 11 24 11C20 11 7 14 0 14C-4 14 -7 11 -7 7C-7 3 -5 0 0 0Z" fill="#111111"/></g>
<g transform="translate(4003.0112,9820) scale(1,-1)"><path d="M133 7C164 7 231 0 244 0C251 0 254 5 254 12C254 38 214 113 214 174C214 196 225 204 270 204C325 204 332 196 332 88C332 37 322 11 306 11C297 11 289 14 282 14C277 14 274 11 274 7C274 3 276 0 282 0C295 0 430 5 489 5C561 5 630 0 658 0C662 0 664 3 664 7C664 11 663 14 660 20C596 147 503 470 503 616C503 626 497 630 489 630C469 630 389 624 303 624C236 624 114 631 80 631C74 631 71 627 71 623C71 619 74 615 80 615C92 615 108 619 121 619C151 619 179 609 179 545C179 419 3 155 3 17C3 4 10 0 24 0C46 0 92 7 133 7ZM178 405C178 504 192 559 221 559C245 559 254 530 283 417C307 324 318 276 318 243C318 225 312 214 269 214C201 214 178 222 178 405Z" fill="#111111"/></g>
<g transform="translate(4701.0112,9820) scale(1,-1)"><path d="M623 284C623 292 619 295 614 295C609 295 605 291 605 286C605 276 612 260 612 242C612 200 562 179 480 179C322 179 274 274 274 440C274 576 288 635 320 635C349 635 352 596 359 554C390 388 436 315 590 314C613 315 617 327 617 343C617 377 611 426 612 470C613 531 623 624 623 640C623 647 619 650 615 650C610 650 607 647 607 640C607 637 610 625 610 615C610 599 597 593 580 593C515 593 465 645 322 645C130 645 23 512 23 308C23 38 181 -15 354 -15C569 -15 623 107 623 284Z" fill="#111111"/></g>
<g transform="translate(5379.0112,9820) scale(1,-1)"><path d="M191 627C122 627 62 630 0 630C-5 630 -7 627 -7 623C-7 620 -5 616 0 616C7 616 17 619 27 619C52 619 54 587 56 555C60 494 61 422 61 350C61 248 58 147 56 75C54 28 49 11 24 11C20 11 7 13 0 13C-5 13 -7 10 -7 7C-7 3 -5 0 0 0C33 0 131 3 198 3C261 3 350 0 382 0C387 0 389 3 389 7C389 10 387 13 382 13C374 13 363 11 358 11C333 11 328 28 326 75C324 147 321 249 321 351C321 423 322 495 326 556C328 588 330 619 355 619C365 619 375 616 382 616C387 616 389 620 389 623C389 627 387 630 382 630C320 630 260 627 191 627Z" fill="#111111"/></g>
<g transform="translate(5801.0112,9820) scale(1,-1)"><path d="M0 0C33 0 131 6 198 6C273 6 380 0 418 0C422 0 425 2 425 6C425 10 423 13 418 13C404 13 380 11 371 11C338 11 328 28 326 75C325 118 323 179 323 228C323 249 328 255 337 255C390 255 428 104 490 104C497 104 502 109 502 114C502 144 496 202 496 251C496 303 504 356 504 377C504 389 499 391 492 391C424 391 383 265 337 265C327 265 323 270 323 288C323 374 325 470 330 554C332 586 336 617 368 617C439 617 452 370 580 370C591 370 595 375 595 381C595 403 589 460 589 514C589 560 594 593 594 613C594 623 589 630 575 630C515 630 290 626 196 626C125 626 64 630 0 630C-4 630 -7 627 -7 623C-7 619 -5 616 0 616C7 616 17 620 27 620C52 620 54 588 56 556C60 486 61 402 61 320C61 228 58 139 56 75C54 28 49 11 24 11C20 11 7 14 0 14C-4 14 -7 11 -7 7C-7 3 -5 0 0 0Z" fill="#111111"/></g>
<g transform="translate(6446.0112,9820) scale(1,-1)"><path d="M191 627C122 627 62 630 0 630C-5 630 -7 627 -7 623C-7 620 -5 616 0 616C7 616 17 619 27 619C52 619 54 587 56 555C60 494 61 422 61 350C61 248 58 147 56 75C54 28 49 11 24 11C20 11 7 13 0 13C-5 13 -7 10 -7 7C-7 3 -5 0 0 0C33 0 131 3 198 3C261 3 350 0 382 0C387 0 389 3 389 7C389 10 387 13 382 13C374 13 363 11 358 11C333 11 328 28 326 75C324 147 321 249 321 351C321 423 322 495 326 556C328 588 330 619 355 619C365 619 375 616 382 616C387 616 389 620 389 623C389 627 387 630 382 630C320 630 260 627 191 627Z" fill="#111111"/></g>
<g transform="translate(6868.0112,9820) scale(1,-1)"><path d="M623 284C623 292 619 295 614 295C609 295 605 291 605 286C605 276 612 260 612 242C612 200 562 179 480 179C322 179 274 274 274 440C274 576 288 635 320 635C349 635 352 596 359 554C390 388 436 315 590 314C613 315 617 327 617 343C617 377 611 426 612 470C613 531 623 624 623 640C623 647 619 650 615 650C610 650 607 647 607 640C607 637 610 625 610 615C610 599 597 593 580 593C515 593 465 645 322 645C130 645 23 512 23 308C23 38 181 -15 354 -15C569 -15 623 107 623 284Z" fill="#111111"/></g>
<g transform="translate(7805.4112000000005,9820) scale(1,-1)"><path d="M0 0C34 0 130 2 198 2C268 2 371 0 407 0C412 0 414 4 414 7C414 11 412 14 407 14C392 14 367 11 358 11C333 11 328 28 326 75C324 132 321 216 321 298C321 317 332 325 356 325C384 325 403 313 403 289C403 236 400 185 400 141C400 31 457 -10 554 -10C681 -9 693 36 693 113C693 150 690 168 680 168C677 168 674 166 674 161C674 149 683 135 683 114C683 96 673 92 667 92C657 92 652 96 652 117C652 173 654 227 654 263C654 337 599 367 540 367C468 367 414 335 363 335C355 335 351 340 351 344C351 348 353 351 357 353C490 417 683 433 683 616C683 627 678 630 670 630C633 630 576 626 534 626C495 626 450 630 417 630C412 630 409 626 409 622C409 610 416 600 416 557C416 499 390 356 336 356C325 356 321 361 321 386C321 459 322 530 326 578C328 611 334 619 348 619C355 619 363 617 368 617C373 617 375 620 375 624C375 627 373 630 368 630C310 630 255 628 191 628C122 628 62 630 0 630C-4 630 -7 628 -7 623C-7 619 -5 616 0 616C7 616 17 619 27 619C52 619 54 588 56 556C60 495 61 423 61 351C61 249 58 147 56 75C54 28 49 11 24 11C19 11 8 14 0 14C-4 14 -7 12 -7 7C-7 3 -5 0 0 0Z" fill="#111111"/></g>
<g transform="translate(8541.4112,9820) scale(1,-1)"><path d="M191 627C122 627 62 630 0 630C-5 630 -7 627 -7 623C-7 620 -5 616 0 616C7 616 17 619 27 619C52 619 54 587 56 555C60 494 61 422 61 350C61 248 58 147 56 75C54 28 49 11 24 11C20 11 7 13 0 13C-5 13 -7 10 -7 7C-7 3 -5 0 0 0C33 0 131 3 198 3C261 3 350 0 382 0C387 0 389 3 389 7C389 10 387 13 382 13C374 13 363 11 358 11C333 11 328 28 326 75C324 147 321 249 321 351C321 423 322 495 326 556C328 588 330 619 355 619C365 619 375 616 382 616C387 616 389 620 389 623C389 627 387 630 382 630C320 630 260 627 191 627Z" fill="#111111"/></g>
<g transform="translate(8963.4112,9820) scale(1,-1)"><path d="M88 451C138 404 271 215 355 29C364 9 373 0 393 0C426 0 464 4 503 4C533 4 567 0 595 0C609 0 613 8 613 26C613 64 598 234 598 290C598 546 645 589 645 621C645 626 642 630 636 630C610 628 580 627 548 627C516 627 482 628 445 630C438 630 434 625 434 617C434 487 588 403 588 237C588 228 583 224 578 224C574 224 569 227 565 231C456 349 338 524 338 612C338 623 333 630 320 630C271 630 207 626 158 626C104 626 49 630 0 630C-4 630 -6 627 -6 624C-6 620 -4 617 0 617C8 617 16 620 28 620C56 620 62 611 62 444C62 68 -5 33 -5 5C-5 2 -3 0 0 0C23 0 65 3 119 3C156 3 198 0 236 0C242 0 245 3 245 8C245 100 72 240 72 443C72 451 76 454 80 454C83 454 86 453 88 451Z" fill="#111111"/></g>
<g transform="translate(9662.4112,9820) scale(1,-1)"><path d="M655 150C655 305 663 329 700 329C705 329 713 328 719 328C723 328 725 330 725 334C725 338 722 340 719 340C694 340 596 335 528 335C457 335 368 341 317 341C311 341 308 337 308 333C308 330 310 325 316 325C324 325 351 329 359 329C390 329 401 300 401 188C401 47 379 19 347 19C300 19 287 96 287 269C287 560 302 634 339 634C364 634 379 600 398 557C432 479 480 370 629 370C640 370 642 375 642 387C642 413 639 455 640 489C641 543 648 597 648 640C648 647 644 650 640 650C636 650 632 648 632 642C632 639 635 630 635 620C635 598 615 593 598 593C537 593 484 645 352 645C110 645 10 519 10 263C10 38 133 -15 276 -15C436 -15 457 67 580 67C626 67 647 57 647 37C647 23 644 14 644 8C644 2 648 -1 652 -1C657 -1 660 2 660 8C660 25 655 70 655 150Z" fill="#111111"/></g>
<g transform="translate(10402.4112,9820) scale(1,-1)"><path d="M28 7C28 15 26 25 26 32C26 55 41 69 70 69C127 69 186 -15 310 -15C468 -15 566 40 566 191C566 334 465 400 336 467C253 510 228 551 228 588C228 617 246 635 273 635C370 635 415 384 522 384C533 384 539 389 539 397C539 416 534 455 534 488C534 542 540 594 540 639C540 648 538 651 533 651C529 651 526 648 526 642C526 634 529 628 529 618C529 601 513 591 491 591C448 591 362 645 276 645C90 645 20 556 20 430C20 308 113 235 218 182C306 137 351 90 351 40C351 7 332 -5 307 -5C219 -5 138 269 32 269C18 269 14 261 14 250C14 226 21 191 21 141C21 97 14 31 14 7C14 2 17 -1 21 -1C25 -1 28 2 28 7Z" fill="#111111"/></g>
<g transform="translate(11693.9792,9820) scale(1.1968,-1.1968)"><path d="M74 122C74 6 160 -7 220 -7C404 -7 641 61 758 61C810 61 835 32 847 -4C848 -7 850 -8 853 -8C868 -8 884 17 884 71C884 148 849 213 760 213C627 213 484 5 197 5C138 5 117 24 117 36C117 39 117 46 128 53C239 118 643 60 643 265C643 328 584 380 518 380C513 380 510 378 510 375C510 361 520 342 520 306C520 143 226 122 111 50C105 46 102 50 102 55C102 142 487 132 487 323C487 394 426 460 358 460C352 460 348 457 348 453C348 440 358 424 358 391C358 240 167 176 96 74C93 70 87 71 87 76C87 286 349 309 349 519C349 618 284 673 184 673C70 673 30 611 30 552C30 492 66 453 121 453C155 453 194 473 194 525C194 618 81 595 81 624C81 642 101 651 123 651C177 651 219 622 219 558C219 447 74 253 74 122Z" fill="#111111"/></g>
</svg>