<svg xmlns="http://www.w3.org/2000/svg" viewBox="0 0 1085.0 1085.0">
  
  <g fill="#111111">
    <g transform="translate(227.5,849.5) scale(1,-1)"><path d="M270 -108C274 -25 291 295 298 391C302 448 296 451 313 451C319 451 329 449 334 449C341 449 346 451 346 457C346 462 344 466 334 466C326 466 299 465 269 465C208 465 143 498 152 608C157 671 182 730 239 730C253 730 259 725 259 716C259 707 253 700 243 691C224 674 196 645 196 595C196 542 228 503 290 503C344 503 379 541 379 603C379 680 347 741 231 741C135 741 56 678 56 567C56 505 62 495 62 473C62 467 58 461 50 461C36 461 19 466 4 466C-4 466 -7 462 -7 457C-7 452 -5 449 2 449C11 449 18 453 25 453C41 453 44 439 44 422C44 292 7 -40 7 -119C7 -123 8 -127 14 -127C18 -127 21 -125 21 -119C21 -115 20 -111 20 -107C20 -86 37 -77 57 -77C128 -77 229 -120 256 -120C264 -120 270 -116 270 -108Z"/></g>
    <g transform="translate(561.5,849.5) scale(1,-1)"><path d="M159 294C50 294 -7 214 -7 115C-7 39 36 -6 139 -6C258 -6 303 64 303 147C303 239 247 294 159 294Z"/></g>
  </g>
</svg>