<svg viewBox="0 0 1085 1085" xmlns="http://www.w3.org/2000/svg"><path d="m0 0h1085v1085h-1085z" fill="#d93a2b"/><g fill="#f5f1ea"><path d="m270-108c4 83 21 403 28 499 4 57-2 60 15 60 6 0 16-2 21-2 7 0 12 2 12 8 0 5-2 9-12 9-8 0-35-1-65-1-61 0-126 33-117 143 5 63 30 122 87 122 14 0 20-5 20-14s-6-16-16-25c-19-17-47-46-47-96 0-53 32-92 94-92 54 0 89 38 89 100 0 77-32 138-148 138-96 0-175-63-175-174 0-62 6-72 6-94 0-6-4-12-12-12-14 0-31 5-46 5-8 0-11-4-11-9s2-8 9-8c9 0 16 4 23 4 16 0 19-14 19-31 0-130-37-462-37-541 0-4 1-8 7-8 4 0 7 2 7 8 0 4-1 8-1 12 0 21 17 30 37 30 71 0 172-43 199-43 8 0 14 4 14 12z" transform="matrix(1 0 0 -1 227.5 849.5)"/><path d="m159 294c-109 0-166-80-166-179 0-76 43-121 146-121 119 0 164 70 164 153 0 92-56 147-144 147z" transform="matrix(1 0 0 -1 561.5 849.5)"/></g></svg>