<svg xmlns="http://www.w3.org/2000/svg" viewBox="0 0 1080 1080" width="1080" height="1080">
  <rect width="1080" height="1080" fill="#D93A2B"/>
  <g fill="#F5F1EA" color="#F5F1EA" transform="translate(118.8,455.8) scale(0.0771)">
    
  <g fill="currentColor">
    <g transform="translate(25.1,907.4) scale(1.1968,-1.1968)"><path d="M1074 236C1074 470 1049 611 992 692C989 697 985 698 981 698C928 698 784 639 674 639C667 639 663 635 663 629C663 534 1064 378 1064 220C1064 172 1044 141 992 141C847 141 897 494 639 494C496 494 410 402 410 243C410 161 431 142 431 122C431 113 427 107 420 104C392 92 353 88 306 88C193 88 167 130 167 256C167 323 179 341 201 341C252 341 172 143 289 143C340 143 382 194 382 245C382 299 345 352 232 352C72 352 20 251 20 169C20 75 76 -11 215 -11C312 -11 376 43 432 99C440 105 444 105 450 97C492 35 556 -10 647 -10C791 -10 826 64 826 133C826 229 768 285 678 285C651 285 631 279 613 270C604 265 602 269 602 276C602 308 643 350 731 350C886 350 906 205 881 10C880 2 883 0 892 0C914 0 962 5 993 5C1018 5 1063 0 1089 0C1100 0 1103 3 1103 13C1103 53 1074 97 1074 236ZM586 178C586 244 596 266 641 266C671 266 689 220 689 113C689 27 675 0 643 0C612 0 586 54 586 178Z"/></g>
    <g transform="translate(1628.7,846.6) scale(1,-1)"><path d="M409 449C409 256 389 158 345 158C328 158 321 168 321 214C321 574 327 622 367 622C400 622 409 574 409 449ZM0 0C34 0 130 2 198 2C261 2 353 0 385 0C389 0 391 4 391 7C391 11 389 14 385 14C377 14 363 11 358 11C328 11 319 31 319 88C319 136 325 145 434 172C564 204 661 235 661 434C661 573 584 634 457 634C395 634 260 628 191 628C122 628 62 630 0 630C-4 630 -7 627 -7 623C-7 619 -5 616 0 616C7 616 17 619 27 619C52 619 54 588 56 556C60 495 61 423 61 351C61 249 58 147 56 75C54 28 49 11 24 11C20 11 7 14 0 14C-4 14 -7 11 -7 7C-7 3 -5 0 0 0Z"/></g>
    <g transform="translate(2334.7,846.6) scale(1,-1)"><path d="M133 7C164 7 231 0 244 0C251 0 254 5 254 12C254 38 214 113 214 174C214 196 225 204 270 204C325 204 332 196 332 88C332 37 322 11 306 11C297 11 289 14 282 14C277 14 274 11 274 7C274 3 276 0 282 0C295 0 430 5 489 5C561 5 630 0 658 0C662 0 664 3 664 7C664 11 663 14 660 20C596 147 503 470 503 616C503 626 497 630 489 630C469 630 389 624 303 624C236 624 114 631 80 631C74 631 71 627 71 623C71 619 74 615 80 615C92 615 108 619 121 619C151 619 179 609 179 545C179 419 3 155 3 17C3 4 10 0 24 0C46 0 92 7 133 7ZM178 405C178 504 192 559 221 559C245 559 254 530 283 417C307 324 318 276 318 243C318 225 312 214 269 214C201 214 178 222 178 405Z"/></g>
    <g transform="translate(3032.7,846.6) scale(1,-1)"><path d="M623 284C623 292 619 295 614 295C609 295 605 291 605 286C605 276 612 260 612 242C612 200 562 179 480 179C322 179 274 274 274 440C274 576 288 635 320 635C349 635 352 596 359 554C390 388 436 315 590 314C613 315 617 327 617 343C617 377 611 426 612 470C613 531 623 624 623 640C623 647 619 650 615 650C610 650 607 647 607 640C607 637 610 625 610 615C610 599 597 593 580 593C515 593 465 645 322 645C130 645 23 512 23 308C23 38 181 -15 354 -15C569 -15 623 107 623 284Z"/></g>
    <g transform="translate(3710.7,846.6) scale(1,-1)"><path d="M191 627C122 627 62 630 0 630C-5 630 -7 627 -7 623C-7 620 -5 616 0 616C7 616 17 619 27 619C52 619 54 587 56 555C60 494 61 422 61 350C61 248 58 147 56 75C54 28 49 11 24 11C20 11 7 13 0 13C-5 13 -7 10 -7 7C-7 3 -5 0 0 0C33 0 131 3 198 3C261 3 350 0 382 0C387 0 389 3 389 7C389 10 387 13 382 13C374 13 363 11 358 11C333 11 328 28 326 75C324 147 321 249 321 351C321 423 322 495 326 556C328 588 330 619 355 619C365 619 375 616 382 616C387 616 389 620 389 623C389 627 387 630 382 630C320 630 260 627 191 627Z"/></g>
    <g transform="translate(4132.7,846.6) scale(1,-1)"><path d="M0 0C33 0 131 6 198 6C273 6 380 0 418 0C422 0 425 2 425 6C425 10 423 13 418 13C404 13 380 11 371 11C338 11 328 28 326 75C325 118 323 179 323 228C323 249 328 255 337 255C390 255 428 104 490 104C497 104 502 109 502 114C502 144 496 202 496 251C496 303 504 356 504 377C504 389 499 391 492 391C424 391 383 265 337 265C327 265 323 270 323 288C323 374 325 470 330 554C332 586 336 617 368 617C439 617 452 370 580 370C591 370 595 375 595 381C595 403 589 460 589 514C589 560 594 593 594 613C594 623 589 630 575 630C515 630 290 626 196 626C125 626 64 630 0 630C-4 630 -7 627 -7 623C-7 619 -5 616 0 616C7 616 17 620 27 620C52 620 54 588 56 556C60 486 61 402 61 320C61 228 58 139 56 75C54 28 49 11 24 11C20 11 7 14 0 14C-4 14 -7 11 -7 7C-7 3 -5 0 0 0Z"/></g>
    <g transform="translate(4777.7,846.6) scale(1,-1)"><path d="M191 627C122 627 62 630 0 630C-5 630 -7 627 -7 623C-7 620 -5 616 0 616C7 616 17 619 27 619C52 619 54 587 56 555C60 494 61 422 61 350C61 248 58 147 56 75C54 28 49 11 24 11C20 11 7 13 0 13C-5 13 -7 10 -7 7C-7 3 -5 0 0 0C33 0 131 3 198 3C261 3 350 0 382 0C387 0 389 3 389 7C389 10 387 13 382 13C374 13 363 11 358 11C333 11 328 28 326 75C324 147 321 249 321 351C321 423 322 495 326 556C328 588 330 619 355 619C365 619 375 616 382 616C387 616 389 620 389 623C389 627 387 630 382 630C320 630 260 627 191 627Z"/></g>
    <g transform="translate(5199.7,846.6) scale(1,-1)"><path d="M623 284C623 292 619 295 614 295C609 295 605 291 605 286C605 276 612 260 612 242C612 200 562 179 480 179C322 179 274 274 274 440C274 576 288 635 320 635C349 635 352 596 359 554C390 388 436 315 590 314C613 315 617 327 617 343C617 377 611 426 612 470C613 531 623 624 623 640C623 647 619 650 615 650C610 650 607 647 607 640C607 637 610 625 610 615C610 599 597 593 580 593C515 593 465 645 322 645C130 645 23 512 23 308C23 38 181 -15 354 -15C569 -15 623 107 623 284Z"/></g>
    <g transform="translate(6137.1,846.6) scale(1,-1)"><path d="M0 0C34 0 130 2 198 2C268 2 371 0 407 0C412 0 414 4 414 7C414 11 412 14 407 14C392 14 367 11 358 11C333 11 328 28 326 75C324 132 321 216 321 298C321 317 332 325 356 325C384 325 403 313 403 289C403 236 400 185 400 141C400 31 457 -10 554 -10C681 -9 693 36 693 113C693 150 690 168 680 168C677 168 674 166 674 161C674 149 683 135 683 114C683 96 673 92 667 92C657 92 652 96 652 117C652 173 654 227 654 263C654 337 599 367 540 367C468 367 414 335 363 335C355 335 351 340 351 344C351 348 353 351 357 353C490 417 683 433 683 616C683 627 678 630 670 630C633 630 576 626 534 626C495 626 450 630 417 630C412 630 409 626 409 622C409 610 416 600 416 557C416 499 390 356 336 356C325 356 321 361 321 386C321 459 322 530 326 578C328 611 334 619 348 619C355 619 363 617 368 617C373 617 375 620 375 624C375 627 373 630 368 630C310 630 255 628 191 628C122 628 62 630 0 630C-4 630 -7 628 -7 623C-7 619 -5 616 0 616C7 616 17 619 27 619C52 619 54 588 56 556C60 495 61 423 61 351C61 249 58 147 56 75C54 28 49 11 24 11C19 11 8 14 0 14C-4 14 -7 12 -7 7C-7 3 -5 0 0 0Z"/></g>
    <g transform="translate(6873.1,846.6) scale(1,-1)"><path d="M191 627C122 627 62 630 0 630C-5 630 -7 627 -7 623C-7 620 -5 616 0 616C7 616 17 619 27 619C52 619 54 587 56 555C60 494 61 422 61 350C61 248 58 147 56 75C54 28 49 11 24 11C20 11 7 13 0 13C-5 13 -7 10 -7 7C-7 3 -5 0 0 0C33 0 131 3 198 3C261 3 350 0 382 0C387 0 389 3 389 7C389 10 387 13 382 13C374 13 363 11 358 11C333 11 328 28 326 75C324 147 321 249 321 351C321 423 322 495 326 556C328 588 330 619 355 619C365 619 375 616 382 616C387 616 389 620 389 623C389 627 387 630 382 630C320 630 260 627 191 627Z"/></g>
    <g transform="translate(7295.1,846.6) scale(1,-1)"><path d="M88 451C138 404 271 215 355 29C364 9 373 0 393 0C426 0 464 4 503 4C533 4 567 0 595 0C609 0 613 8 613 26C613 64 598 234 598 290C598 546 645 589 645 621C645 626 642 630 636 630C610 628 580 627 548 627C516 627 482 628 445 630C438 630 434 625 434 617C434 487 588 403 588 237C588 228 583 224 578 224C574 224 569 227 565 231C456 349 338 524 338 612C338 623 333 630 320 630C271 630 207 626 158 626C104 626 49 630 0 630C-4 630 -6 627 -6 624C-6 620 -4 617 0 617C8 617 16 620 28 620C56 620 62 611 62 444C62 68 -5 33 -5 5C-5 2 -3 0 0 0C23 0 65 3 119 3C156 3 198 0 236 0C242 0 245 3 245 8C245 100 72 240 72 443C72 451 76 454 80 454C83 454 86 453 88 451Z"/></g>
    <g transform="translate(7994.1,846.6) scale(1,-1)"><path d="M655 150C655 305 663 329 700 329C705 329 713 328 719 328C723 328 725 330 725 334C725 338 722 340 719 340C694 340 596 335 528 335C457 335 368 341 317 341C311 341 308 337 308 333C308 330 310 325 316 325C324 325 351 329 359 329C390 329 401 300 401 188C401 47 379 19 347 19C300 19 287 96 287 269C287 560 302 634 339 634C364 634 379 600 398 557C432 479 480 370 629 370C640 370 642 375 642 387C642 413 639 455 640 489C641 543 648 597 648 640C648 647 644 650 640 650C636 650 632 648 632 642C632 639 635 630 635 620C635 598 615 593 598 593C537 593 484 645 352 645C110 645 10 519 10 263C10 38 133 -15 276 -15C436 -15 457 67 580 67C626 67 647 57 647 37C647 23 644 14 644 8C644 2 648 -1 652 -1C657 -1 660 2 660 8C660 25 655 70 655 150Z"/></g>
    <g transform="translate(8734.1,846.6) scale(1,-1)"><path d="M28 7C28 15 26 25 26 32C26 55 41 69 70 69C127 69 186 -15 310 -15C468 -15 566 40 566 191C566 334 465 400 336 467C253 510 228 551 228 588C228 617 246 635 273 635C370 635 415 384 522 384C533 384 539 389 539 397C539 416 534 455 534 488C534 542 540 594 540 639C540 648 538 651 533 651C529 651 526 648 526 642C526 634 529 628 529 618C529 601 513 591 491 591C448 591 362 645 276 645C90 645 20 556 20 430C20 308 113 235 218 182C306 137 351 90 351 40C351 7 332 -5 307 -5C219 -5 138 269 32 269C18 269 14 261 14 250C14 226 21 191 21 141C21 97 14 31 14 7C14 2 17 -1 21 -1C25 -1 28 2 28 7Z"/></g>
    <g transform="translate(9559.7,907.4) scale(1.1968,-1.1968)"><path d="M49 236C49 97 20 53 20 13C20 3 23 0 34 0C60 0 105 5 130 5C161 5 209 0 231 0C240 0 243 2 242 10C217 205 237 350 392 350C480 350 521 308 521 276C521 269 519 265 510 270C492 279 472 285 445 285C355 285 297 229 297 133C297 64 332 -10 476 -10C567 -10 631 35 673 97C679 105 683 105 691 99C747 43 811 -11 908 -11C1047 -11 1103 75 1103 169C1103 251 1051 352 891 352C778 352 741 299 741 245C741 194 783 143 834 143C951 143 871 341 922 341C944 341 956 323 956 256C956 130 930 88 817 88C770 88 731 92 703 104C696 107 692 113 692 122C692 142 713 161 713 243C713 402 627 494 484 494C226 494 276 141 131 141C79 141 59 172 59 220C59 378 460 534 460 629C460 635 456 639 449 639C339 639 195 698 142 698C138 698 134 697 131 692C74 611 49 470 49 236ZM537 178C537 54 511 0 480 0C448 0 434 27 434 113C434 220 452 266 482 266C527 266 537 244 537 178Z"/></g>
  </g>

  </g>
  <text x="540.0" y="624.172267769563" font-family="Instrument Sans, Helvetica Neue, Arial, sans-serif" font-size="37.800000000000004" fill="#F5F1EA" text-anchor="middle" font-style="italic" letter-spacing="0.08em">a future.ly project</text>
</svg>